<mxfile host="app.diagrams.net" modified="2021-12-03T10:25:10.566Z" agent="5.0 (Windows NT 10.0; Win64; x64) AppleWebKit/537.36 (KHTML, like Gecko) Chrome/96.0.4664.45 Safari/537.36" etag="eO6PNhk_1I-TrcFigkNX" version="15.8.3" type="github">
  <diagram id="C5RBs43oDa-KdzZeNtuy" name="Page-1">
    <mxGraphModel dx="1419" dy="3116" grid="1" gridSize="10" guides="1" tooltips="1" connect="1" arrows="1" fold="1" page="1" pageScale="1" pageWidth="827" pageHeight="1169" math="0" shadow="0">
      <root>
        <mxCell id="WIyWlLk6GJQsqaUBKTNV-0" />
        <mxCell id="WIyWlLk6GJQsqaUBKTNV-1" parent="WIyWlLk6GJQsqaUBKTNV-0" />
        <mxCell id="WIyWlLk6GJQsqaUBKTNV-2" value="" style="rounded=0;html=1;jettySize=auto;orthogonalLoop=1;fontSize=11;endArrow=block;endFill=0;endSize=8;strokeWidth=1;shadow=0;labelBackgroundColor=none;edgeStyle=orthogonalEdgeStyle;entryX=0.5;entryY=0;entryDx=0;entryDy=0;" parent="WIyWlLk6GJQsqaUBKTNV-1" source="WIyWlLk6GJQsqaUBKTNV-3" target="wQZ3EyZhdUG7EVG5PoWg-1" edge="1">
          <mxGeometry relative="1" as="geometry">
            <mxPoint x="-5" y="-1490" as="targetPoint" />
            <Array as="points" />
          </mxGeometry>
        </mxCell>
        <mxCell id="WIyWlLk6GJQsqaUBKTNV-3" value="START" style="rounded=1;whiteSpace=wrap;html=1;fontSize=12;glass=0;strokeWidth=1;shadow=0;fillColor=#00E800;strokeColor=#82b366;" parent="WIyWlLk6GJQsqaUBKTNV-1" vertex="1">
          <mxGeometry x="-65" y="-1410" width="120" height="40" as="geometry" />
        </mxCell>
        <mxCell id="wQZ3EyZhdUG7EVG5PoWg-73" style="edgeStyle=orthogonalEdgeStyle;rounded=0;orthogonalLoop=1;jettySize=auto;html=1;exitX=0.5;exitY=1;exitDx=0;exitDy=0;fontSize=14;" edge="1" parent="WIyWlLk6GJQsqaUBKTNV-1" source="WIyWlLk6GJQsqaUBKTNV-10" target="WIyWlLk6GJQsqaUBKTNV-11">
          <mxGeometry relative="1" as="geometry" />
        </mxCell>
        <mxCell id="WIyWlLk6GJQsqaUBKTNV-10" value="Función laberinto en base a dimensión y muros" style="rhombus;whiteSpace=wrap;html=1;shadow=0;fontFamily=Helvetica;fontSize=12;align=center;strokeWidth=1;spacing=6;spacingTop=-4;fillColor=#fff2cc;gradientColor=#ffd966;strokeColor=#d6b656;" parent="WIyWlLk6GJQsqaUBKTNV-1" vertex="1">
          <mxGeometry x="-75" y="-1110" width="140" height="110" as="geometry" />
        </mxCell>
        <mxCell id="wQZ3EyZhdUG7EVG5PoWg-8" style="edgeStyle=orthogonalEdgeStyle;rounded=0;orthogonalLoop=1;jettySize=auto;html=1;exitX=0.5;exitY=1;exitDx=0;exitDy=0;entryX=0.5;entryY=0;entryDx=0;entryDy=0;fontSize=14;" edge="1" parent="WIyWlLk6GJQsqaUBKTNV-1" source="WIyWlLk6GJQsqaUBKTNV-11" target="wQZ3EyZhdUG7EVG5PoWg-6">
          <mxGeometry relative="1" as="geometry" />
        </mxCell>
        <mxCell id="wQZ3EyZhdUG7EVG5PoWg-9" style="edgeStyle=orthogonalEdgeStyle;rounded=0;orthogonalLoop=1;jettySize=auto;html=1;exitX=0.5;exitY=1;exitDx=0;exitDy=0;entryX=0.5;entryY=0;entryDx=0;entryDy=0;fontSize=14;" edge="1" parent="WIyWlLk6GJQsqaUBKTNV-1" source="WIyWlLk6GJQsqaUBKTNV-11" target="wQZ3EyZhdUG7EVG5PoWg-3">
          <mxGeometry relative="1" as="geometry" />
        </mxCell>
        <mxCell id="WIyWlLk6GJQsqaUBKTNV-11" value="Bucle coordenada 1 (i)" style="rounded=1;whiteSpace=wrap;html=1;fontSize=12;glass=0;strokeWidth=1;shadow=0;fillColor=#dae8fc;gradientColor=#7ea6e0;strokeColor=#6c8ebf;" parent="WIyWlLk6GJQsqaUBKTNV-1" vertex="1">
          <mxGeometry x="-65" y="-910" width="120" height="40" as="geometry" />
        </mxCell>
        <mxCell id="wQZ3EyZhdUG7EVG5PoWg-70" style="edgeStyle=orthogonalEdgeStyle;rounded=0;orthogonalLoop=1;jettySize=auto;html=1;exitX=0.5;exitY=1;exitDx=0;exitDy=0;entryX=0.5;entryY=0;entryDx=0;entryDy=0;fontSize=14;" edge="1" parent="WIyWlLk6GJQsqaUBKTNV-1" source="wQZ3EyZhdUG7EVG5PoWg-1" target="WIyWlLk6GJQsqaUBKTNV-10">
          <mxGeometry relative="1" as="geometry" />
        </mxCell>
        <mxCell id="wQZ3EyZhdUG7EVG5PoWg-1" value="Definimos tuplas de muros, entrada y salida y dimensión del laberinto" style="whiteSpace=wrap;html=1;aspect=fixed;fontSize=14;fillColor=#647687;fontColor=#ffffff;strokeColor=#314354;" vertex="1" parent="WIyWlLk6GJQsqaUBKTNV-1">
          <mxGeometry x="-70" y="-1310" width="130" height="130" as="geometry" />
        </mxCell>
        <mxCell id="wQZ3EyZhdUG7EVG5PoWg-3" value="Creo lista de filas vacía" style="rounded=1;whiteSpace=wrap;html=1;fontSize=12;glass=0;strokeWidth=1;shadow=0;fillColor=#dae8fc;gradientColor=#7ea6e0;strokeColor=#6c8ebf;" vertex="1" parent="WIyWlLk6GJQsqaUBKTNV-1">
          <mxGeometry x="-195" y="-790" width="120" height="40" as="geometry" />
        </mxCell>
        <mxCell id="wQZ3EyZhdUG7EVG5PoWg-7" style="edgeStyle=orthogonalEdgeStyle;rounded=0;orthogonalLoop=1;jettySize=auto;html=1;exitX=0.5;exitY=1;exitDx=0;exitDy=0;fontSize=14;entryX=0.5;entryY=0;entryDx=0;entryDy=0;fillColor=#fa6800;strokeColor=#C73500;" edge="1" parent="WIyWlLk6GJQsqaUBKTNV-1" source="wQZ3EyZhdUG7EVG5PoWg-6" target="wQZ3EyZhdUG7EVG5PoWg-10">
          <mxGeometry relative="1" as="geometry">
            <mxPoint x="115" y="-650" as="targetPoint" />
          </mxGeometry>
        </mxCell>
        <mxCell id="wQZ3EyZhdUG7EVG5PoWg-13" style="edgeStyle=orthogonalEdgeStyle;rounded=0;orthogonalLoop=1;jettySize=auto;html=1;exitX=0.5;exitY=1;exitDx=0;exitDy=0;entryX=0.5;entryY=0;entryDx=0;entryDy=0;fontSize=14;fillColor=#fa6800;strokeColor=#C73500;" edge="1" parent="WIyWlLk6GJQsqaUBKTNV-1" source="wQZ3EyZhdUG7EVG5PoWg-6" target="wQZ3EyZhdUG7EVG5PoWg-11">
          <mxGeometry relative="1" as="geometry" />
        </mxCell>
        <mxCell id="wQZ3EyZhdUG7EVG5PoWg-14" style="edgeStyle=orthogonalEdgeStyle;rounded=0;orthogonalLoop=1;jettySize=auto;html=1;exitX=0.5;exitY=1;exitDx=0;exitDy=0;entryX=0.5;entryY=0;entryDx=0;entryDy=0;fontSize=14;fillColor=#fa6800;strokeColor=#C73500;" edge="1" parent="WIyWlLk6GJQsqaUBKTNV-1" source="wQZ3EyZhdUG7EVG5PoWg-6" target="wQZ3EyZhdUG7EVG5PoWg-12">
          <mxGeometry relative="1" as="geometry" />
        </mxCell>
        <mxCell id="wQZ3EyZhdUG7EVG5PoWg-53" style="edgeStyle=orthogonalEdgeStyle;rounded=0;orthogonalLoop=1;jettySize=auto;html=1;exitX=0.5;exitY=1;exitDx=0;exitDy=0;fontSize=14;entryX=0.5;entryY=0;entryDx=0;entryDy=0;fillColor=#fa6800;strokeColor=#C73500;" edge="1" parent="WIyWlLk6GJQsqaUBKTNV-1" source="wQZ3EyZhdUG7EVG5PoWg-6" target="wQZ3EyZhdUG7EVG5PoWg-54">
          <mxGeometry relative="1" as="geometry">
            <mxPoint x="425" y="-640" as="targetPoint" />
          </mxGeometry>
        </mxCell>
        <mxCell id="wQZ3EyZhdUG7EVG5PoWg-6" value="Bucle coordenada 2 (j)" style="rounded=1;whiteSpace=wrap;html=1;fontSize=12;glass=0;strokeWidth=1;shadow=0;fillColor=#dae8fc;gradientColor=#7ea6e0;strokeColor=#6c8ebf;" vertex="1" parent="WIyWlLk6GJQsqaUBKTNV-1">
          <mxGeometry x="55" y="-790" width="120" height="40" as="geometry" />
        </mxCell>
        <mxCell id="wQZ3EyZhdUG7EVG5PoWg-10" value="Comprobar si en la tupla están los muros" style="shape=hexagon;perimeter=hexagonPerimeter2;whiteSpace=wrap;html=1;fixedSize=1;fontSize=14;fillColor=#fa6800;strokeColor=#C73500;fontColor=#000000;" vertex="1" parent="WIyWlLk6GJQsqaUBKTNV-1">
          <mxGeometry x="-405" y="-640" width="120" height="80" as="geometry" />
        </mxCell>
        <mxCell id="wQZ3EyZhdUG7EVG5PoWg-11" value="&lt;span&gt;Comprobar si en la tupla está la entrada&lt;/span&gt;" style="shape=hexagon;perimeter=hexagonPerimeter2;whiteSpace=wrap;html=1;fixedSize=1;fontSize=14;fillColor=#fa6800;strokeColor=#C73500;fontColor=#000000;" vertex="1" parent="WIyWlLk6GJQsqaUBKTNV-1">
          <mxGeometry x="-160" y="-640" width="120" height="80" as="geometry" />
        </mxCell>
        <mxCell id="wQZ3EyZhdUG7EVG5PoWg-12" value="&lt;span&gt;Comprobar si en la tupla está la salida&lt;/span&gt;" style="shape=hexagon;perimeter=hexagonPerimeter2;whiteSpace=wrap;html=1;fixedSize=1;fontSize=14;fillColor=#fa6800;strokeColor=#C73500;fontColor=#000000;" vertex="1" parent="WIyWlLk6GJQsqaUBKTNV-1">
          <mxGeometry x="75" y="-640" width="120" height="80" as="geometry" />
        </mxCell>
        <mxCell id="wQZ3EyZhdUG7EVG5PoWg-32" style="edgeStyle=orthogonalEdgeStyle;rounded=0;orthogonalLoop=1;jettySize=auto;html=1;exitX=0.5;exitY=1;exitDx=0;exitDy=0;entryX=0.5;entryY=0;entryDx=0;entryDy=0;fontSize=14;fillColor=#fa6800;strokeColor=#C73500;" edge="1" parent="WIyWlLk6GJQsqaUBKTNV-1" target="wQZ3EyZhdUG7EVG5PoWg-34">
          <mxGeometry relative="1" as="geometry">
            <mxPoint x="-95.00000000000023" y="-560" as="sourcePoint" />
          </mxGeometry>
        </mxCell>
        <mxCell id="wQZ3EyZhdUG7EVG5PoWg-33" style="edgeStyle=orthogonalEdgeStyle;rounded=0;orthogonalLoop=1;jettySize=auto;html=1;exitX=0.5;exitY=1;exitDx=0;exitDy=0;entryX=0.5;entryY=0;entryDx=0;entryDy=0;fontSize=14;fillColor=#fa6800;strokeColor=#C73500;" edge="1" parent="WIyWlLk6GJQsqaUBKTNV-1" target="wQZ3EyZhdUG7EVG5PoWg-35">
          <mxGeometry relative="1" as="geometry">
            <mxPoint x="-95.00000000000023" y="-560" as="sourcePoint" />
          </mxGeometry>
        </mxCell>
        <mxCell id="wQZ3EyZhdUG7EVG5PoWg-66" style="edgeStyle=orthogonalEdgeStyle;rounded=0;orthogonalLoop=1;jettySize=auto;html=1;exitX=0.5;exitY=1;exitDx=0;exitDy=0;entryX=0.5;entryY=0;entryDx=0;entryDy=0;fontSize=14;fillColor=#fa6800;strokeColor=#C73500;" edge="1" parent="WIyWlLk6GJQsqaUBKTNV-1" source="wQZ3EyZhdUG7EVG5PoWg-34" target="wQZ3EyZhdUG7EVG5PoWg-62">
          <mxGeometry relative="1" as="geometry" />
        </mxCell>
        <mxCell id="wQZ3EyZhdUG7EVG5PoWg-34" value="Poner &quot;E &quot;" style="shape=hexagon;perimeter=hexagonPerimeter2;whiteSpace=wrap;html=1;fixedSize=1;fontSize=14;fillColor=#fa6800;strokeColor=#C73500;fontColor=#000000;" vertex="1" parent="WIyWlLk6GJQsqaUBKTNV-1">
          <mxGeometry x="-205" y="-515" width="80" height="65" as="geometry" />
        </mxCell>
        <mxCell id="wQZ3EyZhdUG7EVG5PoWg-65" style="edgeStyle=orthogonalEdgeStyle;rounded=0;orthogonalLoop=1;jettySize=auto;html=1;exitX=0.5;exitY=1;exitDx=0;exitDy=0;fontSize=14;entryX=0.5;entryY=0;entryDx=0;entryDy=0;fillColor=#fa6800;strokeColor=#C73500;" edge="1" parent="WIyWlLk6GJQsqaUBKTNV-1" source="wQZ3EyZhdUG7EVG5PoWg-35" target="wQZ3EyZhdUG7EVG5PoWg-62">
          <mxGeometry relative="1" as="geometry">
            <mxPoint x="-5.000000000000227" y="-370" as="targetPoint" />
          </mxGeometry>
        </mxCell>
        <mxCell id="wQZ3EyZhdUG7EVG5PoWg-35" value="No ponerla" style="shape=hexagon;perimeter=hexagonPerimeter2;whiteSpace=wrap;html=1;fixedSize=1;fontSize=14;fillColor=#fa6800;strokeColor=#C73500;fontColor=#000000;" vertex="1" parent="WIyWlLk6GJQsqaUBKTNV-1">
          <mxGeometry x="-75" y="-515" width="80" height="65" as="geometry" />
        </mxCell>
        <mxCell id="wQZ3EyZhdUG7EVG5PoWg-36" style="edgeStyle=orthogonalEdgeStyle;rounded=0;orthogonalLoop=1;jettySize=auto;html=1;exitX=0.5;exitY=1;exitDx=0;exitDy=0;entryX=0.5;entryY=0;entryDx=0;entryDy=0;fontSize=14;fillColor=#fa6800;strokeColor=#C73500;" edge="1" parent="WIyWlLk6GJQsqaUBKTNV-1" target="wQZ3EyZhdUG7EVG5PoWg-38">
          <mxGeometry relative="1" as="geometry">
            <mxPoint x="144.99999999999977" y="-560" as="sourcePoint" />
          </mxGeometry>
        </mxCell>
        <mxCell id="wQZ3EyZhdUG7EVG5PoWg-37" style="edgeStyle=orthogonalEdgeStyle;rounded=0;orthogonalLoop=1;jettySize=auto;html=1;exitX=0.5;exitY=1;exitDx=0;exitDy=0;entryX=0.5;entryY=0;entryDx=0;entryDy=0;fontSize=14;fillColor=#fa6800;strokeColor=#C73500;" edge="1" parent="WIyWlLk6GJQsqaUBKTNV-1" target="wQZ3EyZhdUG7EVG5PoWg-39">
          <mxGeometry relative="1" as="geometry">
            <mxPoint x="144.99999999999977" y="-560" as="sourcePoint" />
          </mxGeometry>
        </mxCell>
        <mxCell id="wQZ3EyZhdUG7EVG5PoWg-67" style="edgeStyle=orthogonalEdgeStyle;rounded=0;orthogonalLoop=1;jettySize=auto;html=1;exitX=0.5;exitY=1;exitDx=0;exitDy=0;entryX=0.5;entryY=0;entryDx=0;entryDy=0;fontSize=14;fillColor=#fa6800;strokeColor=#C73500;" edge="1" parent="WIyWlLk6GJQsqaUBKTNV-1" source="wQZ3EyZhdUG7EVG5PoWg-38" target="wQZ3EyZhdUG7EVG5PoWg-62">
          <mxGeometry relative="1" as="geometry" />
        </mxCell>
        <mxCell id="wQZ3EyZhdUG7EVG5PoWg-38" value="Poner &quot;S &quot;" style="shape=hexagon;perimeter=hexagonPerimeter2;whiteSpace=wrap;html=1;fixedSize=1;fontSize=14;fillColor=#fa6800;strokeColor=#C73500;fontColor=#000000;" vertex="1" parent="WIyWlLk6GJQsqaUBKTNV-1">
          <mxGeometry x="35" y="-515" width="80" height="65" as="geometry" />
        </mxCell>
        <mxCell id="wQZ3EyZhdUG7EVG5PoWg-68" style="edgeStyle=orthogonalEdgeStyle;rounded=0;orthogonalLoop=1;jettySize=auto;html=1;exitX=0.5;exitY=1;exitDx=0;exitDy=0;entryX=0.5;entryY=0;entryDx=0;entryDy=0;fontSize=14;fillColor=#fa6800;strokeColor=#C73500;" edge="1" parent="WIyWlLk6GJQsqaUBKTNV-1" source="wQZ3EyZhdUG7EVG5PoWg-39" target="wQZ3EyZhdUG7EVG5PoWg-62">
          <mxGeometry relative="1" as="geometry" />
        </mxCell>
        <mxCell id="wQZ3EyZhdUG7EVG5PoWg-39" value="No ponerla" style="shape=hexagon;perimeter=hexagonPerimeter2;whiteSpace=wrap;html=1;fixedSize=1;fontSize=14;fillColor=#fa6800;strokeColor=#C73500;fontColor=#000000;" vertex="1" parent="WIyWlLk6GJQsqaUBKTNV-1">
          <mxGeometry x="165" y="-515" width="80" height="65" as="geometry" />
        </mxCell>
        <mxCell id="wQZ3EyZhdUG7EVG5PoWg-40" style="edgeStyle=orthogonalEdgeStyle;rounded=0;orthogonalLoop=1;jettySize=auto;html=1;exitX=0.5;exitY=1;exitDx=0;exitDy=0;entryX=0.5;entryY=0;entryDx=0;entryDy=0;fontSize=14;fillColor=#fa6800;strokeColor=#C73500;" edge="1" parent="WIyWlLk6GJQsqaUBKTNV-1" target="wQZ3EyZhdUG7EVG5PoWg-42">
          <mxGeometry relative="1" as="geometry">
            <mxPoint x="-340.0000000000002" y="-560" as="sourcePoint" />
          </mxGeometry>
        </mxCell>
        <mxCell id="wQZ3EyZhdUG7EVG5PoWg-41" style="edgeStyle=orthogonalEdgeStyle;rounded=0;orthogonalLoop=1;jettySize=auto;html=1;exitX=0.5;exitY=1;exitDx=0;exitDy=0;entryX=0.5;entryY=0;entryDx=0;entryDy=0;fontSize=14;fillColor=#fa6800;strokeColor=#C73500;" edge="1" parent="WIyWlLk6GJQsqaUBKTNV-1" target="wQZ3EyZhdUG7EVG5PoWg-43">
          <mxGeometry relative="1" as="geometry">
            <mxPoint x="-340.0000000000002" y="-560" as="sourcePoint" />
          </mxGeometry>
        </mxCell>
        <mxCell id="wQZ3EyZhdUG7EVG5PoWg-63" style="edgeStyle=orthogonalEdgeStyle;rounded=0;orthogonalLoop=1;jettySize=auto;html=1;exitX=0.5;exitY=1;exitDx=0;exitDy=0;entryX=0.5;entryY=0;entryDx=0;entryDy=0;fontSize=14;fillColor=#fa6800;strokeColor=#C73500;" edge="1" parent="WIyWlLk6GJQsqaUBKTNV-1" source="wQZ3EyZhdUG7EVG5PoWg-42" target="wQZ3EyZhdUG7EVG5PoWg-62">
          <mxGeometry relative="1" as="geometry" />
        </mxCell>
        <mxCell id="wQZ3EyZhdUG7EVG5PoWg-42" value="Poner &quot;X &quot;" style="shape=hexagon;perimeter=hexagonPerimeter2;whiteSpace=wrap;html=1;fixedSize=1;fontSize=14;fillColor=#fa6800;strokeColor=#C73500;fontColor=#000000;" vertex="1" parent="WIyWlLk6GJQsqaUBKTNV-1">
          <mxGeometry x="-450" y="-515" width="80" height="65" as="geometry" />
        </mxCell>
        <mxCell id="wQZ3EyZhdUG7EVG5PoWg-64" style="edgeStyle=orthogonalEdgeStyle;rounded=0;orthogonalLoop=1;jettySize=auto;html=1;exitX=0.5;exitY=1;exitDx=0;exitDy=0;fontSize=14;entryX=0.5;entryY=0;entryDx=0;entryDy=0;fillColor=#fa6800;strokeColor=#C73500;" edge="1" parent="WIyWlLk6GJQsqaUBKTNV-1" source="wQZ3EyZhdUG7EVG5PoWg-43" target="wQZ3EyZhdUG7EVG5PoWg-62">
          <mxGeometry relative="1" as="geometry">
            <mxPoint x="-5.000000000000227" y="-370" as="targetPoint" />
          </mxGeometry>
        </mxCell>
        <mxCell id="wQZ3EyZhdUG7EVG5PoWg-43" value="No ponerla" style="shape=hexagon;perimeter=hexagonPerimeter2;whiteSpace=wrap;html=1;fixedSize=1;fontSize=14;fillColor=#fa6800;strokeColor=#C73500;fontColor=#000000;" vertex="1" parent="WIyWlLk6GJQsqaUBKTNV-1">
          <mxGeometry x="-320" y="-515" width="80" height="65" as="geometry" />
        </mxCell>
        <mxCell id="wQZ3EyZhdUG7EVG5PoWg-44" value="Sí" style="text;html=1;align=center;verticalAlign=middle;resizable=0;points=[];autosize=1;strokeColor=#C73500;fillColor=#fa6800;fontSize=14;fontColor=#000000;" vertex="1" parent="WIyWlLk6GJQsqaUBKTNV-1">
          <mxGeometry x="-200" y="-560" width="30" height="20" as="geometry" />
        </mxCell>
        <mxCell id="wQZ3EyZhdUG7EVG5PoWg-45" value="No" style="text;html=1;align=center;verticalAlign=middle;resizable=0;points=[];autosize=1;strokeColor=#C73500;fillColor=#fa6800;fontSize=14;fontColor=#000000;" vertex="1" parent="WIyWlLk6GJQsqaUBKTNV-1">
          <mxGeometry x="-40" y="-560" width="30" height="20" as="geometry" />
        </mxCell>
        <mxCell id="wQZ3EyZhdUG7EVG5PoWg-46" value="No" style="text;html=1;align=center;verticalAlign=middle;resizable=0;points=[];autosize=1;strokeColor=#C73500;fillColor=#fa6800;fontSize=14;fontColor=#000000;" vertex="1" parent="WIyWlLk6GJQsqaUBKTNV-1">
          <mxGeometry x="205" y="-560" width="30" height="20" as="geometry" />
        </mxCell>
        <mxCell id="wQZ3EyZhdUG7EVG5PoWg-47" value="No" style="text;html=1;align=center;verticalAlign=middle;resizable=0;points=[];autosize=1;strokeColor=#C73500;fillColor=#fa6800;fontSize=14;fontColor=#000000;" vertex="1" parent="WIyWlLk6GJQsqaUBKTNV-1">
          <mxGeometry x="-270" y="-560" width="30" height="20" as="geometry" />
        </mxCell>
        <mxCell id="wQZ3EyZhdUG7EVG5PoWg-48" value="Sí" style="text;html=1;align=center;verticalAlign=middle;resizable=0;points=[];autosize=1;strokeColor=#C73500;fillColor=#fa6800;fontSize=14;fontColor=#000000;" vertex="1" parent="WIyWlLk6GJQsqaUBKTNV-1">
          <mxGeometry x="-445" y="-560" width="30" height="20" as="geometry" />
        </mxCell>
        <mxCell id="wQZ3EyZhdUG7EVG5PoWg-49" value="Sí" style="text;html=1;align=center;verticalAlign=middle;resizable=0;points=[];autosize=1;strokeColor=#C73500;fillColor=#fa6800;fontSize=14;fontColor=#000000;" vertex="1" parent="WIyWlLk6GJQsqaUBKTNV-1">
          <mxGeometry x="35" y="-560" width="30" height="20" as="geometry" />
        </mxCell>
        <mxCell id="wQZ3EyZhdUG7EVG5PoWg-50" value="if" style="text;html=1;align=center;verticalAlign=middle;resizable=0;points=[];autosize=1;strokeColor=#C73500;fillColor=#fa6800;fontSize=14;fontColor=#000000;" vertex="1" parent="WIyWlLk6GJQsqaUBKTNV-1">
          <mxGeometry x="-375" y="-690" width="20" height="20" as="geometry" />
        </mxCell>
        <mxCell id="wQZ3EyZhdUG7EVG5PoWg-51" value="elif" style="text;html=1;align=center;verticalAlign=middle;resizable=0;points=[];autosize=1;strokeColor=#C73500;fillColor=#fa6800;fontSize=14;fontColor=#000000;" vertex="1" parent="WIyWlLk6GJQsqaUBKTNV-1">
          <mxGeometry x="-70" y="-690" width="30" height="20" as="geometry" />
        </mxCell>
        <mxCell id="wQZ3EyZhdUG7EVG5PoWg-52" value="elif" style="text;html=1;align=center;verticalAlign=middle;resizable=0;points=[];autosize=1;strokeColor=#C73500;fillColor=#fa6800;fontSize=14;fontColor=#000000;" vertex="1" parent="WIyWlLk6GJQsqaUBKTNV-1">
          <mxGeometry x="159" y="-690" width="30" height="20" as="geometry" />
        </mxCell>
        <mxCell id="wQZ3EyZhdUG7EVG5PoWg-54" value="Si no hay nada" style="shape=hexagon;perimeter=hexagonPerimeter2;whiteSpace=wrap;html=1;fixedSize=1;fontSize=14;fillColor=#fa6800;strokeColor=#C73500;fontColor=#000000;" vertex="1" parent="WIyWlLk6GJQsqaUBKTNV-1">
          <mxGeometry x="265" y="-640" width="120" height="80" as="geometry" />
        </mxCell>
        <mxCell id="wQZ3EyZhdUG7EVG5PoWg-55" style="edgeStyle=orthogonalEdgeStyle;rounded=0;orthogonalLoop=1;jettySize=auto;html=1;exitX=0.5;exitY=1;exitDx=0;exitDy=0;entryX=0.5;entryY=0;entryDx=0;entryDy=0;fontSize=14;fillColor=#fa6800;strokeColor=#C73500;" edge="1" parent="WIyWlLk6GJQsqaUBKTNV-1" target="wQZ3EyZhdUG7EVG5PoWg-57" source="wQZ3EyZhdUG7EVG5PoWg-54">
          <mxGeometry relative="1" as="geometry">
            <mxPoint x="320" y="-560" as="sourcePoint" />
          </mxGeometry>
        </mxCell>
        <mxCell id="wQZ3EyZhdUG7EVG5PoWg-69" style="edgeStyle=orthogonalEdgeStyle;rounded=0;orthogonalLoop=1;jettySize=auto;html=1;exitX=0.5;exitY=1;exitDx=0;exitDy=0;entryX=0.5;entryY=0;entryDx=0;entryDy=0;fontSize=14;fillColor=#fa6800;strokeColor=#C73500;" edge="1" parent="WIyWlLk6GJQsqaUBKTNV-1" source="wQZ3EyZhdUG7EVG5PoWg-57" target="wQZ3EyZhdUG7EVG5PoWg-62">
          <mxGeometry relative="1" as="geometry" />
        </mxCell>
        <mxCell id="wQZ3EyZhdUG7EVG5PoWg-57" value="Poner &quot;&amp;nbsp; &quot;" style="shape=hexagon;perimeter=hexagonPerimeter2;whiteSpace=wrap;html=1;fixedSize=1;fontSize=14;fillColor=#fa6800;strokeColor=#C73500;fontColor=#000000;" vertex="1" parent="WIyWlLk6GJQsqaUBKTNV-1">
          <mxGeometry x="285" y="-515" width="80" height="65" as="geometry" />
        </mxCell>
        <mxCell id="wQZ3EyZhdUG7EVG5PoWg-71" style="edgeStyle=orthogonalEdgeStyle;rounded=0;orthogonalLoop=1;jettySize=auto;html=1;exitX=0.5;exitY=1;exitDx=0;exitDy=0;fontSize=14;" edge="1" parent="WIyWlLk6GJQsqaUBKTNV-1" source="wQZ3EyZhdUG7EVG5PoWg-62" target="wQZ3EyZhdUG7EVG5PoWg-72">
          <mxGeometry relative="1" as="geometry">
            <mxPoint x="-35" y="-200" as="targetPoint" />
          </mxGeometry>
        </mxCell>
        <mxCell id="wQZ3EyZhdUG7EVG5PoWg-62" value="Ejecutar la función sobre la dimensión 6 y los muros" style="shape=process;whiteSpace=wrap;html=1;backgroundOutline=1;fontSize=14;fillColor=#a0522d;fontColor=#ffffff;strokeColor=#6D1F00;" vertex="1" parent="WIyWlLk6GJQsqaUBKTNV-1">
          <mxGeometry x="-265" y="-340" width="460" height="60" as="geometry" />
        </mxCell>
        <mxCell id="wQZ3EyZhdUG7EVG5PoWg-144" style="edgeStyle=orthogonalEdgeStyle;rounded=0;orthogonalLoop=1;jettySize=auto;html=1;exitX=0.5;exitY=1;exitDx=0;exitDy=0;fontSize=14;entryX=0.5;entryY=0;entryDx=0;entryDy=0;" edge="1" parent="WIyWlLk6GJQsqaUBKTNV-1" source="wQZ3EyZhdUG7EVG5PoWg-72" target="wQZ3EyZhdUG7EVG5PoWg-76">
          <mxGeometry relative="1" as="geometry">
            <mxPoint x="-35" y="20" as="targetPoint" />
          </mxGeometry>
        </mxCell>
        <mxCell id="wQZ3EyZhdUG7EVG5PoWg-72" value="Printea el laberinto" style="shape=step;perimeter=stepPerimeter;whiteSpace=wrap;html=1;fixedSize=1;fontSize=14;fillColor=#e6d0de;gradientColor=#d5739d;strokeColor=#996185;" vertex="1" parent="WIyWlLk6GJQsqaUBKTNV-1">
          <mxGeometry x="-120" y="-200" width="170" height="80" as="geometry" />
        </mxCell>
        <mxCell id="wQZ3EyZhdUG7EVG5PoWg-75" style="edgeStyle=orthogonalEdgeStyle;rounded=0;orthogonalLoop=1;jettySize=auto;html=1;exitX=0.5;exitY=1;exitDx=0;exitDy=0;fontSize=14;" edge="1" parent="WIyWlLk6GJQsqaUBKTNV-1" source="wQZ3EyZhdUG7EVG5PoWg-76" target="wQZ3EyZhdUG7EVG5PoWg-79">
          <mxGeometry relative="1" as="geometry" />
        </mxCell>
        <mxCell id="wQZ3EyZhdUG7EVG5PoWg-76" value="Función solución laberinto en base a laberinto" style="rhombus;whiteSpace=wrap;html=1;shadow=0;fontFamily=Helvetica;fontSize=12;align=center;strokeWidth=1;spacing=6;spacingTop=-4;fillColor=#fff2cc;gradientColor=#ffd966;strokeColor=#d6b656;" vertex="1" parent="WIyWlLk6GJQsqaUBKTNV-1">
          <mxGeometry x="-105" y="30" width="140" height="110" as="geometry" />
        </mxCell>
        <mxCell id="wQZ3EyZhdUG7EVG5PoWg-77" style="edgeStyle=orthogonalEdgeStyle;rounded=0;orthogonalLoop=1;jettySize=auto;html=1;exitX=0.5;exitY=1;exitDx=0;exitDy=0;entryX=0.5;entryY=0;entryDx=0;entryDy=0;fontSize=14;" edge="1" parent="WIyWlLk6GJQsqaUBKTNV-1" source="wQZ3EyZhdUG7EVG5PoWg-79" target="wQZ3EyZhdUG7EVG5PoWg-85">
          <mxGeometry relative="1" as="geometry" />
        </mxCell>
        <mxCell id="wQZ3EyZhdUG7EVG5PoWg-79" value="Empieza por la coordenada (0,0)" style="rounded=1;whiteSpace=wrap;html=1;fontSize=12;glass=0;strokeWidth=1;shadow=0;fillColor=#dae8fc;gradientColor=#7ea6e0;strokeColor=#6c8ebf;" vertex="1" parent="WIyWlLk6GJQsqaUBKTNV-1">
          <mxGeometry x="-95" y="230" width="120" height="40" as="geometry" />
        </mxCell>
        <mxCell id="wQZ3EyZhdUG7EVG5PoWg-81" style="edgeStyle=orthogonalEdgeStyle;rounded=0;orthogonalLoop=1;jettySize=auto;html=1;exitX=0.5;exitY=1;exitDx=0;exitDy=0;fontSize=14;entryX=0.5;entryY=0;entryDx=0;entryDy=0;fillColor=#fa6800;strokeColor=#C73500;" edge="1" parent="WIyWlLk6GJQsqaUBKTNV-1" source="wQZ3EyZhdUG7EVG5PoWg-85" target="wQZ3EyZhdUG7EVG5PoWg-86">
          <mxGeometry relative="1" as="geometry">
            <mxPoint x="85" y="490" as="targetPoint" />
          </mxGeometry>
        </mxCell>
        <mxCell id="wQZ3EyZhdUG7EVG5PoWg-82" style="edgeStyle=orthogonalEdgeStyle;rounded=0;orthogonalLoop=1;jettySize=auto;html=1;exitX=0.5;exitY=1;exitDx=0;exitDy=0;entryX=0.5;entryY=0;entryDx=0;entryDy=0;fontSize=14;fillColor=#fa6800;strokeColor=#C73500;" edge="1" parent="WIyWlLk6GJQsqaUBKTNV-1" source="wQZ3EyZhdUG7EVG5PoWg-85" target="wQZ3EyZhdUG7EVG5PoWg-87">
          <mxGeometry relative="1" as="geometry" />
        </mxCell>
        <mxCell id="wQZ3EyZhdUG7EVG5PoWg-83" style="edgeStyle=orthogonalEdgeStyle;rounded=0;orthogonalLoop=1;jettySize=auto;html=1;exitX=0.5;exitY=1;exitDx=0;exitDy=0;entryX=0.5;entryY=0;entryDx=0;entryDy=0;fontSize=14;fillColor=#fa6800;strokeColor=#C73500;" edge="1" parent="WIyWlLk6GJQsqaUBKTNV-1" source="wQZ3EyZhdUG7EVG5PoWg-85" target="wQZ3EyZhdUG7EVG5PoWg-88">
          <mxGeometry relative="1" as="geometry" />
        </mxCell>
        <mxCell id="wQZ3EyZhdUG7EVG5PoWg-84" style="edgeStyle=orthogonalEdgeStyle;rounded=0;orthogonalLoop=1;jettySize=auto;html=1;exitX=0.5;exitY=1;exitDx=0;exitDy=0;fontSize=14;entryX=0.5;entryY=0;entryDx=0;entryDy=0;fillColor=#fa6800;strokeColor=#C73500;" edge="1" parent="WIyWlLk6GJQsqaUBKTNV-1" source="wQZ3EyZhdUG7EVG5PoWg-85" target="wQZ3EyZhdUG7EVG5PoWg-116">
          <mxGeometry relative="1" as="geometry">
            <mxPoint x="385" y="500" as="targetPoint" />
          </mxGeometry>
        </mxCell>
        <mxCell id="wQZ3EyZhdUG7EVG5PoWg-128" style="edgeStyle=orthogonalEdgeStyle;rounded=0;orthogonalLoop=1;jettySize=auto;html=1;exitX=0.5;exitY=1;exitDx=0;exitDy=0;entryX=0.5;entryY=0;entryDx=0;entryDy=0;fontSize=14;fillColor=#fa6800;strokeColor=#C73500;" edge="1" parent="WIyWlLk6GJQsqaUBKTNV-1" source="wQZ3EyZhdUG7EVG5PoWg-85" target="wQZ3EyZhdUG7EVG5PoWg-127">
          <mxGeometry relative="1" as="geometry" />
        </mxCell>
        <mxCell id="wQZ3EyZhdUG7EVG5PoWg-85" value="Empieza el movimiento por abajo y crea la lista de movimiento" style="rounded=1;whiteSpace=wrap;html=1;fontSize=12;glass=0;strokeWidth=1;shadow=0;fillColor=#dae8fc;gradientColor=#7ea6e0;strokeColor=#6c8ebf;" vertex="1" parent="WIyWlLk6GJQsqaUBKTNV-1">
          <mxGeometry x="-102.5" y="325" width="135" height="65" as="geometry" />
        </mxCell>
        <mxCell id="wQZ3EyZhdUG7EVG5PoWg-86" value="Bucle Abajo" style="shape=hexagon;perimeter=hexagonPerimeter2;whiteSpace=wrap;html=1;fixedSize=1;fontSize=14;fillColor=#fa6800;fontColor=#000000;strokeColor=#C73500;" vertex="1" parent="WIyWlLk6GJQsqaUBKTNV-1">
          <mxGeometry x="-470" y="500" width="120" height="80" as="geometry" />
        </mxCell>
        <mxCell id="wQZ3EyZhdUG7EVG5PoWg-87" value="&lt;span&gt;Bucle Arriba&lt;/span&gt;" style="shape=hexagon;perimeter=hexagonPerimeter2;whiteSpace=wrap;html=1;fixedSize=1;fontSize=14;fillColor=#fa6800;fontColor=#000000;strokeColor=#C73500;" vertex="1" parent="WIyWlLk6GJQsqaUBKTNV-1">
          <mxGeometry x="-215" y="500" width="120" height="80" as="geometry" />
        </mxCell>
        <mxCell id="wQZ3EyZhdUG7EVG5PoWg-88" value="Bucle Izquierda" style="shape=hexagon;perimeter=hexagonPerimeter2;whiteSpace=wrap;html=1;fixedSize=1;fontSize=14;fillColor=#fa6800;fontColor=#000000;strokeColor=#C73500;" vertex="1" parent="WIyWlLk6GJQsqaUBKTNV-1">
          <mxGeometry x="20" y="500" width="120" height="80" as="geometry" />
        </mxCell>
        <mxCell id="wQZ3EyZhdUG7EVG5PoWg-89" style="edgeStyle=orthogonalEdgeStyle;rounded=0;orthogonalLoop=1;jettySize=auto;html=1;exitX=0.5;exitY=1;exitDx=0;exitDy=0;entryX=0.5;entryY=0;entryDx=0;entryDy=0;fontSize=14;fillColor=#fa6800;strokeColor=#C73500;" edge="1" parent="WIyWlLk6GJQsqaUBKTNV-1" target="wQZ3EyZhdUG7EVG5PoWg-92">
          <mxGeometry relative="1" as="geometry">
            <mxPoint x="-140" y="580" as="sourcePoint" />
          </mxGeometry>
        </mxCell>
        <mxCell id="wQZ3EyZhdUG7EVG5PoWg-90" style="edgeStyle=orthogonalEdgeStyle;rounded=0;orthogonalLoop=1;jettySize=auto;html=1;exitX=0.5;exitY=1;exitDx=0;exitDy=0;entryX=0.5;entryY=0;entryDx=0;entryDy=0;fontSize=14;fillColor=#fa6800;strokeColor=#C73500;" edge="1" parent="WIyWlLk6GJQsqaUBKTNV-1" target="wQZ3EyZhdUG7EVG5PoWg-94">
          <mxGeometry relative="1" as="geometry">
            <mxPoint x="-140" y="580" as="sourcePoint" />
          </mxGeometry>
        </mxCell>
        <mxCell id="wQZ3EyZhdUG7EVG5PoWg-91" style="edgeStyle=orthogonalEdgeStyle;rounded=0;orthogonalLoop=1;jettySize=auto;html=1;exitX=0.5;exitY=1;exitDx=0;exitDy=0;entryX=0.5;entryY=0;entryDx=0;entryDy=0;fontSize=14;" edge="1" parent="WIyWlLk6GJQsqaUBKTNV-1" source="wQZ3EyZhdUG7EVG5PoWg-92" target="wQZ3EyZhdUG7EVG5PoWg-121">
          <mxGeometry relative="1" as="geometry" />
        </mxCell>
        <mxCell id="wQZ3EyZhdUG7EVG5PoWg-92" value="&lt;span&gt;Suma una fila&lt;/span&gt;" style="shape=hexagon;perimeter=hexagonPerimeter2;whiteSpace=wrap;html=1;fixedSize=1;fontSize=14;fillColor=#fa6800;fontColor=#000000;strokeColor=#C73500;" vertex="1" parent="WIyWlLk6GJQsqaUBKTNV-1">
          <mxGeometry x="-250" y="625" width="80" height="65" as="geometry" />
        </mxCell>
        <mxCell id="wQZ3EyZhdUG7EVG5PoWg-93" style="edgeStyle=orthogonalEdgeStyle;rounded=0;orthogonalLoop=1;jettySize=auto;html=1;exitX=0.5;exitY=1;exitDx=0;exitDy=0;fontSize=14;entryX=0.5;entryY=0;entryDx=0;entryDy=0;" edge="1" parent="WIyWlLk6GJQsqaUBKTNV-1" source="wQZ3EyZhdUG7EVG5PoWg-94" target="wQZ3EyZhdUG7EVG5PoWg-121">
          <mxGeometry relative="1" as="geometry">
            <mxPoint x="-115.00000000000023" y="770" as="targetPoint" />
          </mxGeometry>
        </mxCell>
        <mxCell id="wQZ3EyZhdUG7EVG5PoWg-94" value="&lt;span&gt;Comprueba que no haya muro&lt;/span&gt;" style="shape=hexagon;perimeter=hexagonPerimeter2;whiteSpace=wrap;html=1;fixedSize=1;fontSize=14;fillColor=#fa6800;fontColor=#000000;strokeColor=#C73500;" vertex="1" parent="WIyWlLk6GJQsqaUBKTNV-1">
          <mxGeometry x="-120" y="625" width="80" height="65" as="geometry" />
        </mxCell>
        <mxCell id="wQZ3EyZhdUG7EVG5PoWg-95" style="edgeStyle=orthogonalEdgeStyle;rounded=0;orthogonalLoop=1;jettySize=auto;html=1;exitX=0.5;exitY=1;exitDx=0;exitDy=0;entryX=0.5;entryY=0;entryDx=0;entryDy=0;fontSize=14;fillColor=#fa6800;strokeColor=#C73500;" edge="1" parent="WIyWlLk6GJQsqaUBKTNV-1" target="wQZ3EyZhdUG7EVG5PoWg-98">
          <mxGeometry relative="1" as="geometry">
            <mxPoint x="90" y="580" as="sourcePoint" />
          </mxGeometry>
        </mxCell>
        <mxCell id="wQZ3EyZhdUG7EVG5PoWg-96" style="edgeStyle=orthogonalEdgeStyle;rounded=0;orthogonalLoop=1;jettySize=auto;html=1;exitX=0.5;exitY=1;exitDx=0;exitDy=0;entryX=0.5;entryY=0;entryDx=0;entryDy=0;fontSize=14;fillColor=#fa6800;strokeColor=#C73500;" edge="1" parent="WIyWlLk6GJQsqaUBKTNV-1" target="wQZ3EyZhdUG7EVG5PoWg-100">
          <mxGeometry relative="1" as="geometry">
            <mxPoint x="90" y="580" as="sourcePoint" />
          </mxGeometry>
        </mxCell>
        <mxCell id="wQZ3EyZhdUG7EVG5PoWg-140" style="edgeStyle=orthogonalEdgeStyle;rounded=0;orthogonalLoop=1;jettySize=auto;html=1;exitX=0.5;exitY=1;exitDx=0;exitDy=0;entryX=0.5;entryY=0;entryDx=0;entryDy=0;fontSize=14;" edge="1" parent="WIyWlLk6GJQsqaUBKTNV-1" source="wQZ3EyZhdUG7EVG5PoWg-98" target="wQZ3EyZhdUG7EVG5PoWg-136">
          <mxGeometry relative="1" as="geometry" />
        </mxCell>
        <mxCell id="wQZ3EyZhdUG7EVG5PoWg-98" value="&lt;span&gt;Resta una columna&lt;/span&gt;" style="shape=hexagon;perimeter=hexagonPerimeter2;whiteSpace=wrap;html=1;fixedSize=1;fontSize=14;fillColor=#fa6800;fontColor=#000000;strokeColor=#C73500;" vertex="1" parent="WIyWlLk6GJQsqaUBKTNV-1">
          <mxGeometry x="-20" y="625" width="80" height="65" as="geometry" />
        </mxCell>
        <mxCell id="wQZ3EyZhdUG7EVG5PoWg-141" style="edgeStyle=orthogonalEdgeStyle;rounded=0;orthogonalLoop=1;jettySize=auto;html=1;exitX=0.5;exitY=1;exitDx=0;exitDy=0;entryX=0.5;entryY=0;entryDx=0;entryDy=0;fontSize=14;" edge="1" parent="WIyWlLk6GJQsqaUBKTNV-1" source="wQZ3EyZhdUG7EVG5PoWg-100" target="wQZ3EyZhdUG7EVG5PoWg-136">
          <mxGeometry relative="1" as="geometry" />
        </mxCell>
        <mxCell id="wQZ3EyZhdUG7EVG5PoWg-100" value="&lt;span&gt;Comprueba que no haya muro&lt;/span&gt;" style="shape=hexagon;perimeter=hexagonPerimeter2;whiteSpace=wrap;html=1;fixedSize=1;fontSize=14;fillColor=#fa6800;fontColor=#000000;strokeColor=#C73500;" vertex="1" parent="WIyWlLk6GJQsqaUBKTNV-1">
          <mxGeometry x="110" y="625" width="80" height="65" as="geometry" />
        </mxCell>
        <mxCell id="wQZ3EyZhdUG7EVG5PoWg-101" style="edgeStyle=orthogonalEdgeStyle;rounded=0;orthogonalLoop=1;jettySize=auto;html=1;exitX=0.5;exitY=1;exitDx=0;exitDy=0;entryX=0.5;entryY=0;entryDx=0;entryDy=0;fontSize=14;fillColor=#fa6800;strokeColor=#C73500;" edge="1" parent="WIyWlLk6GJQsqaUBKTNV-1" target="wQZ3EyZhdUG7EVG5PoWg-104">
          <mxGeometry relative="1" as="geometry">
            <mxPoint x="-405" y="575" as="sourcePoint" />
          </mxGeometry>
        </mxCell>
        <mxCell id="wQZ3EyZhdUG7EVG5PoWg-102" style="edgeStyle=orthogonalEdgeStyle;rounded=0;orthogonalLoop=1;jettySize=auto;html=1;exitX=0.5;exitY=1;exitDx=0;exitDy=0;entryX=0.5;entryY=0;entryDx=0;entryDy=0;fontSize=14;fillColor=#fa6800;strokeColor=#C73500;" edge="1" parent="WIyWlLk6GJQsqaUBKTNV-1" target="wQZ3EyZhdUG7EVG5PoWg-106">
          <mxGeometry relative="1" as="geometry">
            <mxPoint x="-405" y="575" as="sourcePoint" />
          </mxGeometry>
        </mxCell>
        <mxCell id="wQZ3EyZhdUG7EVG5PoWg-103" style="edgeStyle=orthogonalEdgeStyle;rounded=0;orthogonalLoop=1;jettySize=auto;html=1;exitX=0.5;exitY=1;exitDx=0;exitDy=0;fontSize=14;entryX=0.5;entryY=0;entryDx=0;entryDy=0;" edge="1" parent="WIyWlLk6GJQsqaUBKTNV-1" source="wQZ3EyZhdUG7EVG5PoWg-104" target="wQZ3EyZhdUG7EVG5PoWg-124">
          <mxGeometry relative="1" as="geometry">
            <mxPoint x="-405" y="740" as="targetPoint" />
          </mxGeometry>
        </mxCell>
        <mxCell id="wQZ3EyZhdUG7EVG5PoWg-104" value="Resta una fila" style="shape=hexagon;perimeter=hexagonPerimeter2;whiteSpace=wrap;html=1;fixedSize=1;fontSize=14;fillColor=#fa6800;fontColor=#000000;strokeColor=#C73500;" vertex="1" parent="WIyWlLk6GJQsqaUBKTNV-1">
          <mxGeometry x="-515" y="620" width="80" height="65" as="geometry" />
        </mxCell>
        <mxCell id="wQZ3EyZhdUG7EVG5PoWg-105" style="edgeStyle=orthogonalEdgeStyle;rounded=0;orthogonalLoop=1;jettySize=auto;html=1;exitX=0.5;exitY=1;exitDx=0;exitDy=0;fontSize=14;entryX=0.5;entryY=0;entryDx=0;entryDy=0;" edge="1" parent="WIyWlLk6GJQsqaUBKTNV-1" source="wQZ3EyZhdUG7EVG5PoWg-106" target="wQZ3EyZhdUG7EVG5PoWg-124">
          <mxGeometry relative="1" as="geometry">
            <mxPoint x="-405" y="740" as="targetPoint" />
          </mxGeometry>
        </mxCell>
        <mxCell id="wQZ3EyZhdUG7EVG5PoWg-106" value="Comprueba que no haya muro" style="shape=hexagon;perimeter=hexagonPerimeter2;whiteSpace=wrap;html=1;fixedSize=1;fontSize=14;fillColor=#fa6800;fontColor=#000000;strokeColor=#C73500;" vertex="1" parent="WIyWlLk6GJQsqaUBKTNV-1">
          <mxGeometry x="-385" y="620" width="80" height="65" as="geometry" />
        </mxCell>
        <mxCell id="wQZ3EyZhdUG7EVG5PoWg-113" value="if" style="text;html=1;align=center;verticalAlign=middle;resizable=0;points=[];autosize=1;strokeColor=#C73500;fillColor=#fa6800;fontSize=14;fontColor=#000000;" vertex="1" parent="WIyWlLk6GJQsqaUBKTNV-1">
          <mxGeometry x="-440" y="445" width="20" height="20" as="geometry" />
        </mxCell>
        <mxCell id="wQZ3EyZhdUG7EVG5PoWg-114" value="elif" style="text;html=1;align=center;verticalAlign=middle;resizable=0;points=[];autosize=1;strokeColor=#C73500;fillColor=#fa6800;fontSize=14;fontColor=#000000;" vertex="1" parent="WIyWlLk6GJQsqaUBKTNV-1">
          <mxGeometry x="-180" y="450" width="30" height="20" as="geometry" />
        </mxCell>
        <mxCell id="wQZ3EyZhdUG7EVG5PoWg-115" value="elif" style="text;html=1;align=center;verticalAlign=middle;resizable=0;points=[];autosize=1;strokeColor=#C73500;fillColor=#fa6800;fontSize=14;fontColor=#000000;" vertex="1" parent="WIyWlLk6GJQsqaUBKTNV-1">
          <mxGeometry x="30" y="450" width="30" height="20" as="geometry" />
        </mxCell>
        <mxCell id="wQZ3EyZhdUG7EVG5PoWg-131" style="edgeStyle=orthogonalEdgeStyle;rounded=0;orthogonalLoop=1;jettySize=auto;html=1;exitX=0.5;exitY=1;exitDx=0;exitDy=0;entryX=0.5;entryY=0;entryDx=0;entryDy=0;fontSize=14;fillColor=#fa6800;strokeColor=#C73500;" edge="1" parent="WIyWlLk6GJQsqaUBKTNV-1" source="wQZ3EyZhdUG7EVG5PoWg-116" target="wQZ3EyZhdUG7EVG5PoWg-130">
          <mxGeometry relative="1" as="geometry" />
        </mxCell>
        <mxCell id="wQZ3EyZhdUG7EVG5PoWg-116" value="Bucle Derecha" style="shape=hexagon;perimeter=hexagonPerimeter2;whiteSpace=wrap;html=1;fixedSize=1;fontSize=14;fillColor=#fa6800;fontColor=#000000;strokeColor=#C73500;" vertex="1" parent="WIyWlLk6GJQsqaUBKTNV-1">
          <mxGeometry x="265" y="500" width="120" height="80" as="geometry" />
        </mxCell>
        <mxCell id="wQZ3EyZhdUG7EVG5PoWg-117" style="edgeStyle=orthogonalEdgeStyle;rounded=0;orthogonalLoop=1;jettySize=auto;html=1;exitX=0.5;exitY=1;exitDx=0;exitDy=0;entryX=0.5;entryY=0;entryDx=0;entryDy=0;fontSize=14;fillColor=#fa6800;strokeColor=#C73500;" edge="1" parent="WIyWlLk6GJQsqaUBKTNV-1" source="wQZ3EyZhdUG7EVG5PoWg-116" target="wQZ3EyZhdUG7EVG5PoWg-119">
          <mxGeometry relative="1" as="geometry">
            <mxPoint x="335" y="580" as="sourcePoint" />
          </mxGeometry>
        </mxCell>
        <mxCell id="wQZ3EyZhdUG7EVG5PoWg-143" style="edgeStyle=orthogonalEdgeStyle;rounded=0;orthogonalLoop=1;jettySize=auto;html=1;exitX=0.5;exitY=1;exitDx=0;exitDy=0;entryX=0.5;entryY=0;entryDx=0;entryDy=0;fontSize=14;" edge="1" parent="WIyWlLk6GJQsqaUBKTNV-1" source="wQZ3EyZhdUG7EVG5PoWg-119" target="wQZ3EyZhdUG7EVG5PoWg-137">
          <mxGeometry relative="1" as="geometry" />
        </mxCell>
        <mxCell id="wQZ3EyZhdUG7EVG5PoWg-119" value="&lt;span&gt;Comprueba que no haya muro&lt;/span&gt;" style="shape=hexagon;perimeter=hexagonPerimeter2;whiteSpace=wrap;html=1;fixedSize=1;fontSize=14;fillColor=#fa6800;fontColor=#000000;strokeColor=#C73500;" vertex="1" parent="WIyWlLk6GJQsqaUBKTNV-1">
          <mxGeometry x="340" y="625" width="80" height="65" as="geometry" />
        </mxCell>
        <mxCell id="wQZ3EyZhdUG7EVG5PoWg-120" style="edgeStyle=orthogonalEdgeStyle;rounded=0;orthogonalLoop=1;jettySize=auto;html=1;exitX=0.5;exitY=1;exitDx=0;exitDy=0;fontSize=14;" edge="1" parent="WIyWlLk6GJQsqaUBKTNV-1" source="wQZ3EyZhdUG7EVG5PoWg-121" target="wQZ3EyZhdUG7EVG5PoWg-122">
          <mxGeometry relative="1" as="geometry">
            <mxPoint x="-65" y="940" as="targetPoint" />
          </mxGeometry>
        </mxCell>
        <mxCell id="wQZ3EyZhdUG7EVG5PoWg-121" value="Añade arriba la lista de movimiento" style="shape=process;whiteSpace=wrap;html=1;backgroundOutline=1;fontSize=14;fillColor=#a0522d;fontColor=#ffffff;strokeColor=#6D1F00;" vertex="1" parent="WIyWlLk6GJQsqaUBKTNV-1">
          <mxGeometry x="-230" y="745" width="185" height="60" as="geometry" />
        </mxCell>
        <mxCell id="wQZ3EyZhdUG7EVG5PoWg-145" style="edgeStyle=orthogonalEdgeStyle;rounded=0;orthogonalLoop=1;jettySize=auto;html=1;exitX=0.5;exitY=1;exitDx=0;exitDy=0;fontSize=14;entryX=0.5;entryY=0;entryDx=0;entryDy=0;" edge="1" parent="WIyWlLk6GJQsqaUBKTNV-1" source="wQZ3EyZhdUG7EVG5PoWg-122" target="wQZ3EyZhdUG7EVG5PoWg-146">
          <mxGeometry relative="1" as="geometry">
            <mxPoint x="-57" y="1110" as="targetPoint" />
          </mxGeometry>
        </mxCell>
        <mxCell id="wQZ3EyZhdUG7EVG5PoWg-122" value="Printea la lista de movimientos con la solución para escapar del laberinto" style="shape=step;perimeter=stepPerimeter;whiteSpace=wrap;html=1;fixedSize=1;fontSize=14;fillColor=#e6d0de;gradientColor=#d5739d;strokeColor=#996185;" vertex="1" parent="WIyWlLk6GJQsqaUBKTNV-1">
          <mxGeometry x="-120" y="880" width="170" height="80" as="geometry" />
        </mxCell>
        <mxCell id="wQZ3EyZhdUG7EVG5PoWg-148" style="edgeStyle=orthogonalEdgeStyle;rounded=0;orthogonalLoop=1;jettySize=auto;html=1;exitX=0.5;exitY=1;exitDx=0;exitDy=0;entryX=0.5;entryY=0;entryDx=0;entryDy=0;fontSize=14;strokeColor=#0D0B05;" edge="1" parent="WIyWlLk6GJQsqaUBKTNV-1" source="wQZ3EyZhdUG7EVG5PoWg-124" target="wQZ3EyZhdUG7EVG5PoWg-122">
          <mxGeometry relative="1" as="geometry" />
        </mxCell>
        <mxCell id="wQZ3EyZhdUG7EVG5PoWg-124" value="Añade abajo a la lista de movimiento" style="shape=process;whiteSpace=wrap;html=1;backgroundOutline=1;fontSize=14;fillColor=#a0522d;fontColor=#ffffff;strokeColor=#6D1F00;" vertex="1" parent="WIyWlLk6GJQsqaUBKTNV-1">
          <mxGeometry x="-502.5" y="745" width="185" height="60" as="geometry" />
        </mxCell>
        <mxCell id="wQZ3EyZhdUG7EVG5PoWg-125" value="else" style="text;html=1;align=center;verticalAlign=middle;resizable=0;points=[];autosize=1;strokeColor=#C73500;fillColor=#fa6800;fontSize=14;fontColor=#000000;" vertex="1" parent="WIyWlLk6GJQsqaUBKTNV-1">
          <mxGeometry x="275" y="-690" width="40" height="20" as="geometry" />
        </mxCell>
        <mxCell id="wQZ3EyZhdUG7EVG5PoWg-126" value="elif" style="text;html=1;align=center;verticalAlign=middle;resizable=0;points=[];autosize=1;strokeColor=#C73500;fillColor=#fa6800;fontSize=14;fontColor=#000000;" vertex="1" parent="WIyWlLk6GJQsqaUBKTNV-1">
          <mxGeometry x="285" y="445" width="30" height="20" as="geometry" />
        </mxCell>
        <mxCell id="wQZ3EyZhdUG7EVG5PoWg-139" style="edgeStyle=orthogonalEdgeStyle;rounded=0;orthogonalLoop=1;jettySize=auto;html=1;exitX=0.5;exitY=1;exitDx=0;exitDy=0;entryX=0.5;entryY=0;entryDx=0;entryDy=0;fontSize=14;" edge="1" parent="WIyWlLk6GJQsqaUBKTNV-1" source="wQZ3EyZhdUG7EVG5PoWg-127" target="wQZ3EyZhdUG7EVG5PoWg-138">
          <mxGeometry relative="1" as="geometry" />
        </mxCell>
        <mxCell id="wQZ3EyZhdUG7EVG5PoWg-127" value="No hay movimiento" style="shape=hexagon;perimeter=hexagonPerimeter2;whiteSpace=wrap;html=1;fixedSize=1;fontSize=14;fillColor=#fa6800;fontColor=#000000;strokeColor=#C73500;" vertex="1" parent="WIyWlLk6GJQsqaUBKTNV-1">
          <mxGeometry x="492.5" y="500" width="120" height="80" as="geometry" />
        </mxCell>
        <mxCell id="wQZ3EyZhdUG7EVG5PoWg-129" value="else" style="text;html=1;align=center;verticalAlign=middle;resizable=0;points=[];autosize=1;strokeColor=#C73500;fillColor=#fa6800;fontSize=14;fontColor=#000000;" vertex="1" parent="WIyWlLk6GJQsqaUBKTNV-1">
          <mxGeometry x="500" y="450" width="40" height="20" as="geometry" />
        </mxCell>
        <mxCell id="wQZ3EyZhdUG7EVG5PoWg-142" style="edgeStyle=orthogonalEdgeStyle;rounded=0;orthogonalLoop=1;jettySize=auto;html=1;exitX=0.5;exitY=1;exitDx=0;exitDy=0;entryX=0.5;entryY=0;entryDx=0;entryDy=0;fontSize=14;" edge="1" parent="WIyWlLk6GJQsqaUBKTNV-1" source="wQZ3EyZhdUG7EVG5PoWg-130" target="wQZ3EyZhdUG7EVG5PoWg-137">
          <mxGeometry relative="1" as="geometry" />
        </mxCell>
        <mxCell id="wQZ3EyZhdUG7EVG5PoWg-130" value="&lt;span&gt;Suma una columna&lt;/span&gt;" style="shape=hexagon;perimeter=hexagonPerimeter2;whiteSpace=wrap;html=1;fixedSize=1;fontSize=14;fillColor=#fa6800;fontColor=#000000;strokeColor=#C73500;" vertex="1" parent="WIyWlLk6GJQsqaUBKTNV-1">
          <mxGeometry x="235" y="625" width="80" height="65" as="geometry" />
        </mxCell>
        <mxCell id="wQZ3EyZhdUG7EVG5PoWg-149" style="edgeStyle=orthogonalEdgeStyle;rounded=0;orthogonalLoop=1;jettySize=auto;html=1;exitX=0.5;exitY=1;exitDx=0;exitDy=0;fontSize=14;strokeColor=#0D0B05;entryX=0.5;entryY=0;entryDx=0;entryDy=0;" edge="1" parent="WIyWlLk6GJQsqaUBKTNV-1" source="wQZ3EyZhdUG7EVG5PoWg-136" target="wQZ3EyZhdUG7EVG5PoWg-122">
          <mxGeometry relative="1" as="geometry">
            <mxPoint x="-60" y="950" as="targetPoint" />
          </mxGeometry>
        </mxCell>
        <mxCell id="wQZ3EyZhdUG7EVG5PoWg-136" value="Añade izquierda la lista de movimiento" style="shape=process;whiteSpace=wrap;html=1;backgroundOutline=1;fontSize=14;fillColor=#a0522d;fontColor=#ffffff;strokeColor=#6D1F00;" vertex="1" parent="WIyWlLk6GJQsqaUBKTNV-1">
          <mxGeometry x="-10" y="745" width="185" height="60" as="geometry" />
        </mxCell>
        <mxCell id="wQZ3EyZhdUG7EVG5PoWg-150" style="edgeStyle=orthogonalEdgeStyle;rounded=0;orthogonalLoop=1;jettySize=auto;html=1;exitX=0.5;exitY=1;exitDx=0;exitDy=0;entryX=0.5;entryY=0;entryDx=0;entryDy=0;fontSize=14;strokeColor=#0D0B05;" edge="1" parent="WIyWlLk6GJQsqaUBKTNV-1" source="wQZ3EyZhdUG7EVG5PoWg-137" target="wQZ3EyZhdUG7EVG5PoWg-122">
          <mxGeometry relative="1" as="geometry" />
        </mxCell>
        <mxCell id="wQZ3EyZhdUG7EVG5PoWg-137" value="Añade arriba la lista de movimiento" style="shape=process;whiteSpace=wrap;html=1;backgroundOutline=1;fontSize=14;fillColor=#a0522d;fontColor=#ffffff;strokeColor=#6D1F00;" vertex="1" parent="WIyWlLk6GJQsqaUBKTNV-1">
          <mxGeometry x="232.5" y="745" width="185" height="60" as="geometry" />
        </mxCell>
        <mxCell id="wQZ3EyZhdUG7EVG5PoWg-151" style="edgeStyle=orthogonalEdgeStyle;rounded=0;orthogonalLoop=1;jettySize=auto;html=1;exitX=0.5;exitY=1;exitDx=0;exitDy=0;fontSize=14;strokeColor=#030201;entryX=0.5;entryY=0;entryDx=0;entryDy=0;" edge="1" parent="WIyWlLk6GJQsqaUBKTNV-1" source="wQZ3EyZhdUG7EVG5PoWg-138" target="wQZ3EyZhdUG7EVG5PoWg-122">
          <mxGeometry relative="1" as="geometry">
            <mxPoint x="-20" y="940" as="targetPoint" />
          </mxGeometry>
        </mxCell>
        <mxCell id="wQZ3EyZhdUG7EVG5PoWg-138" value="Añade arriba la lista de movimiento" style="shape=process;whiteSpace=wrap;html=1;backgroundOutline=1;fontSize=14;fillColor=#a0522d;fontColor=#ffffff;strokeColor=#6D1F00;" vertex="1" parent="WIyWlLk6GJQsqaUBKTNV-1">
          <mxGeometry x="460" y="745" width="185" height="60" as="geometry" />
        </mxCell>
        <mxCell id="wQZ3EyZhdUG7EVG5PoWg-146" value="STOP" style="whiteSpace=wrap;html=1;aspect=fixed;fontSize=14;fillColor=#e51400;strokeColor=#B20000;fontColor=#ffffff;" vertex="1" parent="WIyWlLk6GJQsqaUBKTNV-1">
          <mxGeometry x="-75" y="990" width="80" height="80" as="geometry" />
        </mxCell>
      </root>
    </mxGraphModel>
  </diagram>
</mxfile>
